<?xml version="1.0" encoding="us-ascii" standalone="no"?><svg xmlns="http://www.w3.org/2000/svg" xmlns:xlink="http://www.w3.org/1999/xlink" contentStyleType="text/css" height="235px" preserveAspectRatio="none" style="width:436px;height:235px;background:#FFFFFF;" version="1.1" viewBox="0 0 436 235" width="436px" zoomAndPan="magnify"><defs/><g><!--class State--><g id="elem_State"><rect codeLine="1" fill="#F1F1F1" height="80.5938" id="State" rx="2.5" ry="2.5" style="stroke:#181818;stroke-width:0.5;" width="195" x="119.5" y="7"/><ellipse cx="194.25" cy="23" fill="#A9DCDF" rx="11" ry="11" style="stroke:#181818;stroke-width:1.0;"/><path d="M196.3281,24.8125 L196.7188,25.7969 L196.3281,25.7969 C195.875,25.7969 195.7656,25.8125 195.6094,25.9219 C195.3594,26.0781 195.2031,26.3594 195.2031,26.6563 C195.2031,26.9219 195.3438,27.1719 195.5625,27.3281 C195.7031,27.4531 195.9063,27.5 196.3281,27.5 L198.6875,27.5 C199.0469,27.5 199.2656,27.4688 199.4063,27.375 C199.6563,27.2344 199.8125,26.9375 199.8125,26.6563 C199.8125,26.375 199.6719,26.125 199.4531,25.9688 C199.2813,25.8281 199.125,25.7969 198.6563,25.7969 L195.2656,17.5938 L191.5938,17.5938 C191.1406,17.5938 191.0156,17.6094 190.8594,17.7031 C190.6094,17.875 190.4531,18.1563 190.4531,18.4375 C190.4531,18.7188 190.5938,18.9688 190.8125,19.1406 C190.9844,19.25 191.1563,19.2813 191.5938,19.2813 L192.6719,19.2813 L190.0313,25.7969 C189.6094,25.7969 189.4531,25.8125 189.2969,25.9219 C189.0469,26.0781 188.8906,26.3594 188.8906,26.6563 C188.8906,27.2188 189.2656,27.5 190.0156,27.5 L192.2813,27.5 C192.6406,27.5 192.8594,27.4688 192.9844,27.375 C193.25,27.2344 193.3906,26.9375 193.3906,26.6563 C193.3906,26.375 193.2656,26.125 193.0469,25.9531 C192.875,25.8281 192.7344,25.7969 192.2813,25.7969 L191.8906,25.7969 L192.2813,24.8125 L196.3281,24.8125 Z M195.625,23.1094 L192.9531,23.1094 L194.2969,19.8438 L195.625,23.1094 Z " fill="#000000"/><text fill="#000000" font-family="sans-serif" font-size="14" font-style="italic" lengthAdjust="spacing" textLength="37" x="214.75" y="27.8467">State</text><line style="stroke:#181818;stroke-width:0.5;" x1="120.5" x2="313.5" y1="39" y2="39"/><line style="stroke:#181818;stroke-width:0.5;" x1="120.5" x2="313.5" y1="47" y2="47"/><text fill="#000000" font-family="sans-serif" font-size="14" font-style="italic" lengthAdjust="spacing" textLength="179" x="125.5" y="63.9951">handleMouseClick(event)</text><text fill="#000000" font-family="sans-serif" font-size="14" font-style="italic" lengthAdjust="spacing" textLength="183" x="125.5" y="80.292">handleMouseMove(event)</text></g><!--class IdleState--><g id="elem_IdleState"><rect codeLine="6" fill="#F1F1F1" height="64.2969" id="IdleState" rx="2.5" ry="2.5" style="stroke:#181818;stroke-width:0.5;" width="192" x="7" y="156.5"/><ellipse cx="65.75" cy="172.5" fill="#ADD1B2" rx="11" ry="11" style="stroke:#181818;stroke-width:1.0;"/><path d="M68.0938,168.1719 C67.1563,167.7344 66.5625,167.5938 65.6875,167.5938 C63.0625,167.5938 61.0625,169.6719 61.0625,172.3906 L61.0625,173.5156 C61.0625,176.0938 63.1719,177.9844 66.0625,177.9844 C67.2813,177.9844 68.4375,177.6875 69.1875,177.1406 C69.7656,176.7344 70.0938,176.2813 70.0938,175.8906 C70.0938,175.4375 69.7031,175.0469 69.2344,175.0469 C69.0156,175.0469 68.8125,175.125 68.625,175.3125 C68.1719,175.7969 68.1719,175.7969 67.9844,175.8906 C67.5625,176.1563 66.875,176.2813 66.1094,176.2813 C64.0625,176.2813 62.7656,175.1875 62.7656,173.4844 L62.7656,172.3906 C62.7656,170.6094 64.0156,169.2969 65.75,169.2969 C66.3281,169.2969 66.9375,169.4531 67.4063,169.7031 C67.8906,169.9844 68.0625,170.2031 68.1563,170.6094 C68.2188,171.0156 68.25,171.1406 68.3906,171.2656 C68.5313,171.4063 68.7656,171.5156 68.9844,171.5156 C69.25,171.5156 69.5156,171.375 69.6875,171.1563 C69.7969,171 69.8281,170.8125 69.8281,170.3906 L69.8281,168.9688 C69.8281,168.5313 69.8125,168.4063 69.7188,168.25 C69.5625,167.9844 69.2813,167.8438 68.9844,167.8438 C68.6875,167.8438 68.4844,167.9375 68.2656,168.25 L68.0938,168.1719 Z " fill="#000000"/><text fill="#000000" font-family="sans-serif" font-size="14" lengthAdjust="spacing" textLength="66" x="86.25" y="177.3467">IdleState</text><line style="stroke:#181818;stroke-width:0.5;" x1="8" x2="198" y1="188.5" y2="188.5"/><line style="stroke:#181818;stroke-width:0.5;" x1="8" x2="198" y1="196.5" y2="196.5"/><text fill="#000000" font-family="sans-serif" font-size="14" lengthAdjust="spacing" textLength="180" x="13" y="213.4951">handleMouseClick(event)</text></g><!--class DrawingState--><g id="elem_DrawingState"><rect codeLine="10" fill="#F1F1F1" height="80.5938" id="DrawingState" rx="2.5" ry="2.5" style="stroke:#181818;stroke-width:0.5;" width="195" x="234.5" y="148"/><ellipse cx="278.75" cy="164" fill="#ADD1B2" rx="11" ry="11" style="stroke:#181818;stroke-width:1.0;"/><path d="M281.0938,159.6719 C280.1563,159.2344 279.5625,159.0938 278.6875,159.0938 C276.0625,159.0938 274.0625,161.1719 274.0625,163.8906 L274.0625,165.0156 C274.0625,167.5938 276.1719,169.4844 279.0625,169.4844 C280.2813,169.4844 281.4375,169.1875 282.1875,168.6406 C282.7656,168.2344 283.0938,167.7813 283.0938,167.3906 C283.0938,166.9375 282.7031,166.5469 282.2344,166.5469 C282.0156,166.5469 281.8125,166.625 281.625,166.8125 C281.1719,167.2969 281.1719,167.2969 280.9844,167.3906 C280.5625,167.6563 279.875,167.7813 279.1094,167.7813 C277.0625,167.7813 275.7656,166.6875 275.7656,164.9844 L275.7656,163.8906 C275.7656,162.1094 277.0156,160.7969 278.75,160.7969 C279.3281,160.7969 279.9375,160.9531 280.4063,161.2031 C280.8906,161.4844 281.0625,161.7031 281.1563,162.1094 C281.2188,162.5156 281.25,162.6406 281.3906,162.7656 C281.5313,162.9063 281.7656,163.0156 281.9844,163.0156 C282.25,163.0156 282.5156,162.875 282.6875,162.6563 C282.7969,162.5 282.8281,162.3125 282.8281,161.8906 L282.8281,160.4688 C282.8281,160.0313 282.8125,159.9063 282.7188,159.75 C282.5625,159.4844 282.2813,159.3438 281.9844,159.3438 C281.6875,159.3438 281.4844,159.4375 281.2656,159.75 L281.0938,159.6719 Z " fill="#000000"/><text fill="#000000" font-family="sans-serif" font-size="14" lengthAdjust="spacing" textLength="98" x="299.25" y="168.8467">DrawingState</text><line style="stroke:#181818;stroke-width:0.5;" x1="235.5" x2="428.5" y1="180" y2="180"/><line style="stroke:#181818;stroke-width:0.5;" x1="235.5" x2="428.5" y1="188" y2="188"/><text fill="#000000" font-family="sans-serif" font-size="14" lengthAdjust="spacing" textLength="183" x="240.5" y="204.9951">handleMouseMove(event)</text><text fill="#000000" font-family="sans-serif" font-size="14" lengthAdjust="spacing" textLength="180" x="240.5" y="221.292">handleMouseClick(event)</text></g><!--reverse link State to IdleState--><g id="link_State_IdleState"><path codeLine="15" d="M172.9175,102.2499 C155.1535,123.9099 144.921,136.3853 128.428,156.4962 " fill="none" id="State-backto-IdleState" style="stroke:#181818;stroke-width:1.0;"/><polygon fill="none" points="184.332,88.332,168.2782,98.4451,177.5568,106.0548,184.332,88.332" style="stroke:#181818;stroke-width:1.0;"/></g><!--reverse link State to DrawingState--><g id="link_State_DrawingState"><path codeLine="16" d="M261.4284,102.2006 C276.8274,120.8126 283.642,129.0499 299.041,147.6624 " fill="none" id="State-backto-DrawingState" style="stroke:#181818;stroke-width:1.0;"/><polygon fill="none" points="249.954,88.332,256.8056,106.0254,266.0513,98.3758,249.954,88.332" style="stroke:#181818;stroke-width:1.0;"/></g><!--SRC=[IqmgBYbAJ2vHICv9B2vM22v9B4bLgEPIKAXEXChKAcGavgNafFhcbnQdEkTa9cThf9QbvfLeubJacr-M2bDJoyK5CTaJA8im7PUHSEKkHOdbcNdfM7KWcu_NA8XkcnfTNOJro8B8bW00]--></g></svg>